<svg width="2498" height="731" viewBox="0 0 2498 731" fill="none" xmlns="http://www.w3.org/2000/svg">
<path d="M161.127 731H313.873V615.51L276.618 578.255H197.451L161.127 615.51V731ZM358.578 417.127L322.255 453.451V533.549L358.578 569.873H475V417.127H358.578ZM313.873 256H161.127V372.422L197.451 408.745H276.618L313.873 372.422V256ZM475 731V615.51L438.676 578.255H322.255V731H475ZM36.3235 256L0 292.324V408.745H152.745V256H36.3235ZM322.255 256V372.422L358.578 408.745H475V256H322.255ZM237.5 515.853C225.392 515.853 216.078 505.608 216.078 494.431C216.078 482.324 226.324 473.01 237.5 473.01C249.608 473.01 258.922 483.255 258.922 494.431C258.922 505.608 249.608 515.853 237.5 515.853ZM152.745 417.127H0V569.873H115.49L152.745 533.549V417.127ZM152.745 615.51L115.49 578.255H0V731H115.49L152.745 694.676V615.51Z" fill="#BD9B60"/>
<path d="M801.912 615.51C799.118 615.51 798.186 614.578 797.255 611.784L759.069 476.735H758.137L719.951 611.784C719.02 614.578 718.088 615.51 715.294 615.51H670.588C667.794 615.51 666.863 614.578 665.931 611.784L600.735 377.078C600.735 375.216 600.735 373.353 603.529 373.353H662.206C665 373.353 666.863 375.216 666.863 377.078L697.598 517.716H698.529L735.784 377.078C736.716 374.284 737.647 373.353 740.441 373.353H776.765C779.559 373.353 780.49 374.284 781.422 377.078L820.539 517.716H821.471L851.275 377.078C851.275 375.216 853.137 373.353 855.931 373.353H914.608C916.471 373.353 917.402 375.216 917.402 377.078L852.206 611.784C851.275 614.578 850.343 615.51 847.549 615.51H801.912ZM963.971 615.51C962.108 615.51 960.245 613.647 960.245 611.784V377.078C960.245 375.216 962.108 373.353 963.971 373.353H1060.83C1119.51 373.353 1150.25 406.882 1150.25 453.451C1150.25 500.02 1119.51 534.48 1060.83 534.48H1025.44C1023.58 534.48 1023.58 535.412 1023.58 536.343V610.853C1023.58 612.716 1021.72 614.578 1019.85 614.578H963.971V615.51ZM1087.84 454.382C1087.84 437.618 1076.67 427.373 1057.11 427.373H1025.44C1023.58 427.373 1023.58 428.304 1023.58 429.235V479.529C1023.58 481.392 1024.51 481.392 1025.44 481.392H1057.11C1076.67 481.392 1087.84 470.216 1087.84 454.382ZM1233.14 555.902C1228.48 542.863 1226.62 527.029 1226.62 495.363C1226.62 464.627 1229.41 447.863 1233.14 434.824C1245.25 396.637 1275.05 377.078 1313.24 377.078C1352.35 377.078 1381.23 396.637 1393.33 434.824C1397.99 447.863 1399.85 462.765 1399.85 491.637C1399.85 494.431 1397.99 496.294 1394.26 496.294H1242.45C1240.59 496.294 1239.66 498.157 1239.66 500.02C1239.66 525.167 1241.52 539.137 1245.25 551.245C1256.42 585.706 1281.57 600.608 1315.1 600.608C1346.76 600.608 1370.05 586.637 1384.02 568.01C1385.88 565.216 1388.68 565.216 1390.54 567.078L1393.33 569.873C1396.13 571.735 1396.13 574.529 1394.26 576.392C1378.43 598.745 1351.42 614.578 1316.03 614.578C1274.12 614.578 1246.18 595.02 1233.14 555.902ZM1384.02 483.255C1385.88 483.255 1386.81 482.324 1386.81 480.461C1386.81 464.627 1384.95 451.588 1381.23 440.412C1370.98 407.814 1346.76 391.049 1314.17 391.049C1281.57 391.049 1257.35 406.882 1247.11 440.412C1243.38 451.588 1241.52 463.696 1241.52 480.461C1241.52 482.324 1242.45 483.255 1244.31 483.255H1384.02ZM1615.93 609.922C1613.14 609.922 1611.27 608.059 1611.27 605.265V469.284C1611.27 415.265 1588.92 391.98 1545.15 391.98C1506.96 391.98 1475.29 418.059 1475.29 462.765V606.196C1475.29 608.99 1473.43 610.853 1470.64 610.853H1465.98C1463.19 610.853 1461.32 608.99 1461.32 606.196V388.255C1461.32 385.461 1463.19 383.598 1465.98 383.598H1470.64C1473.43 383.598 1475.29 385.461 1475.29 388.255V419.922H1476.23C1487.4 393.843 1513.48 378.01 1546.08 378.01C1597.3 378.01 1626.18 406.882 1626.18 465.559V605.265C1626.18 608.059 1624.31 609.922 1621.52 609.922H1615.93ZM1694.17 668.598C1692.3 665.804 1692.3 663.01 1695.1 662.078L1698.82 659.284C1701.62 657.422 1703.48 658.353 1705.34 661.147C1718.38 677.912 1737.94 688.157 1765.88 688.157C1808.73 688.157 1836.67 666.735 1836.67 610.853V572.667H1835.74C1824.56 597.814 1805 615.51 1764.95 615.51C1726.76 615.51 1700.69 595.02 1689.51 561.49C1683.92 545.657 1682.06 525.167 1682.06 497.225C1682.06 469.284 1684.85 448.794 1689.51 432.961C1700.69 399.431 1726.76 378.941 1764.95 378.941C1805 378.941 1824.56 396.637 1835.74 421.784H1836.67V389.186C1836.67 386.392 1838.53 384.529 1841.32 384.529H1845.98C1848.77 384.529 1850.64 386.392 1850.64 389.186V611.784C1850.64 674.186 1817.11 702.128 1764.95 702.128C1732.35 701.196 1705.34 686.294 1694.17 668.598ZM1830.15 555.902C1834.8 541.931 1836.67 525.167 1836.67 496.294C1836.67 468.353 1834.8 450.657 1830.15 436.686C1818.97 403.157 1794.76 391.049 1766.81 391.049C1736.08 391.049 1713.73 405.951 1704.41 435.755C1699.76 449.725 1696.96 469.284 1696.96 495.363C1696.96 521.441 1699.76 541 1704.41 554.971C1714.66 584.775 1736.08 599.677 1766.81 599.677C1794.76 601.539 1819.9 589.431 1830.15 555.902ZM1928.87 312.814C1926.08 312.814 1924.22 310.951 1924.22 308.157V289.529C1924.22 286.735 1926.08 284.873 1928.87 284.873H1940.05C1942.84 284.873 1944.71 286.735 1944.71 289.529V309.088C1944.71 311.882 1942.84 313.745 1940.05 313.745H1928.87V312.814ZM1932.6 609.922C1929.8 609.922 1927.94 608.059 1927.94 605.265V388.255C1927.94 385.461 1929.8 383.598 1932.6 383.598H1937.26C1940.05 383.598 1941.91 385.461 1941.91 388.255V605.265C1941.91 608.059 1940.05 609.922 1937.26 609.922H1932.6ZM2173.82 609.922C2171.03 609.922 2169.17 608.059 2169.17 605.265V469.284C2169.17 415.265 2146.81 391.98 2103.04 391.98C2064.85 391.98 2033.19 418.059 2033.19 462.765V606.196C2033.19 608.99 2031.32 610.853 2028.53 610.853H2023.87C2021.08 610.853 2019.22 608.99 2019.22 606.196V388.255C2019.22 385.461 2021.08 383.598 2023.87 383.598H2028.53C2031.32 383.598 2033.19 385.461 2033.19 388.255V419.922H2034.12C2045.29 393.843 2071.37 378.01 2103.97 378.01C2155.2 378.01 2184.07 406.882 2184.07 465.559V605.265C2184.07 608.059 2182.21 609.922 2179.41 609.922H2173.82ZM2247.4 555.902C2242.74 542.863 2240.88 527.029 2240.88 495.363C2240.88 464.627 2243.68 447.863 2247.4 434.824C2259.51 396.637 2289.31 377.078 2327.5 377.078C2366.62 377.078 2395.49 396.637 2407.6 434.824C2412.26 447.863 2414.12 462.765 2414.12 491.637C2414.12 494.431 2412.26 496.294 2408.53 496.294H2256.72C2254.85 496.294 2253.92 498.157 2253.92 500.02C2253.92 525.167 2255.78 539.137 2259.51 551.245C2270.69 585.706 2295.83 600.608 2329.36 600.608C2361.03 600.608 2384.31 586.637 2398.28 568.01C2400.15 565.216 2402.94 565.216 2404.8 567.078L2407.6 569.873C2410.39 571.735 2410.39 574.529 2408.53 576.392C2392.7 598.745 2365.69 614.578 2330.29 614.578C2288.38 614.578 2259.51 595.02 2247.4 555.902ZM2397.35 483.255C2399.22 483.255 2400.15 482.324 2400.15 480.461C2400.15 464.627 2398.28 451.588 2394.56 440.412C2384.31 407.814 2360.1 391.049 2327.5 391.049C2294.9 391.049 2270.69 406.882 2260.44 440.412C2256.72 451.588 2254.85 463.696 2254.85 480.461C2254.85 482.324 2255.78 483.255 2257.65 483.255H2397.35ZM2442.06 405.951C2442.06 390.118 2454.17 378.01 2470 378.01C2485.83 378.01 2497.94 390.118 2497.94 405.951C2497.94 421.784 2485.83 433.892 2470 433.892C2454.17 433.892 2442.06 421.784 2442.06 405.951ZM2493.28 405.951C2493.28 391.98 2483.04 382.667 2470 382.667C2456.03 382.667 2446.72 392.912 2446.72 405.951C2446.72 419.922 2456.96 429.235 2470 429.235C2483.04 429.235 2493.28 419.922 2493.28 405.951ZM2460.69 421.784C2459.75 421.784 2459.76 421.784 2459.76 420.853V391.98C2459.76 391.049 2459.75 391.049 2460.69 391.049H2471.86C2478.38 391.049 2482.11 394.775 2482.11 400.363C2482.11 404.088 2480.24 407.814 2475.59 408.745L2482.11 420.853C2483.04 421.784 2482.11 422.716 2481.18 422.716H2478.38C2477.45 422.716 2477.45 421.784 2476.52 421.784L2470 409.676H2463.48V420.853C2463.48 421.784 2462.55 421.784 2462.55 421.784H2460.69ZM2477.45 399.431C2477.45 396.637 2475.59 394.775 2471.86 394.775H2464.41V404.088H2471.86C2475.59 404.088 2477.45 402.225 2477.45 399.431Z" fill="#BD9B60"/>
<path d="M88.704 135L54.12 46.956H34.848L0.264 135H17.82L24.288 117.972H64.68L71.148 135H88.704ZM60.324 104.376H28.644L44.484 62.4L60.324 104.376ZM123.796 160.872C139.372 160.872 156.532 154.668 156.532 131.7V71.244H142.672V80.088C137.524 73.224 130.264 69.66 122.212 69.66C105.712 69.66 93.9644 81.672 93.9644 102.396C93.9644 123.384 105.976 135.132 122.212 135.132C130.528 135.132 137.788 130.908 142.672 124.44V131.7C142.672 145.296 132.904 149.52 123.796 149.52C115.348 149.52 108.748 147.276 103.468 141.336L97.0004 151.368C104.92 158.496 112.972 160.872 123.796 160.872ZM126.304 122.724C115.216 122.724 108.22 114.672 108.22 102.396C108.22 90.12 115.216 81.936 126.304 81.936C132.772 81.936 139.504 85.764 142.672 90.384V114.276C139.504 118.896 132.772 122.724 126.304 122.724ZM204.06 136.584C214.092 136.584 223.464 133.284 229.932 127.212L223.596 118.104C218.976 122.724 211.716 125.232 205.38 125.232C193.368 125.232 186.24 117.18 185.184 107.676H234.288V104.244C234.288 84.18 222.144 69.66 203.004 69.66C184.128 69.66 170.664 84.576 170.664 103.056C170.664 123.252 184.788 136.584 204.06 136.584ZM220.956 97.776H185.052C185.58 90.12 191.124 81.012 202.872 81.012C215.412 81.012 220.56 90.252 220.956 97.776ZM304.992 135V90.12C304.992 77.052 298.128 69.66 284.4 69.66C274.368 69.66 266.052 74.808 261.828 79.824V71.244H247.968V135H261.828V90.384C265.128 86.16 271.2 81.936 278.196 81.936C285.984 81.936 291.132 85.104 291.132 95.136V135H304.992ZM352.032 136.584C364.572 136.584 371.964 131.172 376.452 125.232L367.344 116.652C363.78 121.668 358.896 124.308 352.692 124.308C341.208 124.308 333.42 115.464 333.42 103.056C333.42 90.648 341.208 81.936 352.692 81.936C358.896 81.936 363.78 84.312 367.344 89.328L376.452 81.012C371.964 74.94 364.572 69.66 352.032 69.66C332.76 69.66 319.164 83.784 319.164 103.056C319.164 122.328 332.76 136.584 352.032 136.584ZM386.094 159.948C387.942 160.476 391.902 160.872 393.882 160.872C403.782 160.74 411.306 157.308 415.662 146.484L446.418 71.244H431.634L413.022 119.028L394.41 71.244H379.494L405.762 135.792L402.594 143.052C400.746 147.276 397.842 148.596 393.354 148.596C391.77 148.596 389.526 148.2 388.074 147.54L386.094 159.948ZM504.992 135V102H528.356C546.704 102 557 89.46 557 74.544C557 59.496 546.836 46.956 528.356 46.956H489.548V135H504.992ZM526.244 88.404H504.992V60.552H526.244C534.956 60.552 541.16 66.096 541.16 74.544C541.16 82.86 534.956 88.404 526.244 88.404ZM619.943 135V92.628C619.943 75.6 607.535 69.66 593.279 69.66C583.115 69.66 573.875 72.828 566.483 79.956L572.291 89.592C577.703 84.048 584.039 81.408 591.167 81.408C599.879 81.408 606.083 85.896 606.083 93.288V102.792C601.331 97.38 594.071 94.608 585.359 94.608C574.931 94.608 563.315 100.68 563.315 115.464C563.315 129.456 575.063 136.584 585.359 136.584C593.807 136.584 601.331 133.548 606.083 128.004V135H619.943ZM590.903 127.08C583.115 127.08 577.175 122.592 577.175 115.596C577.175 108.732 583.115 104.112 590.903 104.112C596.843 104.112 602.783 106.356 606.083 110.712V120.48C602.783 124.836 596.843 127.08 590.903 127.08ZM651.77 135V91.572C654.542 86.952 662.33 82.992 668.27 82.992C669.986 82.992 671.306 83.124 672.494 83.388V69.66C664.31 69.66 656.654 74.412 651.77 80.484V71.244H637.91V135H651.77ZM702.943 136.584C709.279 136.584 713.371 134.736 715.879 132.492L712.579 121.932C711.523 123.12 709.147 124.308 706.507 124.308C702.547 124.308 700.435 121.008 700.435 116.652V83.256H713.371V71.244H700.435V53.82H686.575V71.244H676.015V83.256H686.575V120.084C686.575 130.776 692.119 136.584 702.943 136.584ZM782.848 135V90.12C782.848 77.052 775.984 69.66 762.256 69.66C752.224 69.66 743.908 74.808 739.684 79.824V71.244H725.824V135H739.684V90.384C742.984 86.16 749.056 81.936 756.052 81.936C763.84 81.936 768.988 85.104 768.988 95.136V135H782.848ZM830.415 136.584C840.447 136.584 849.819 133.284 856.287 127.212L849.951 118.104C845.331 122.724 838.071 125.232 831.735 125.232C819.723 125.232 812.595 117.18 811.539 107.676H860.643V104.244C860.643 84.18 848.499 69.66 829.359 69.66C810.483 69.66 797.019 84.576 797.019 103.056C797.019 123.252 811.143 136.584 830.415 136.584ZM847.311 97.776H811.407C811.935 90.12 817.479 81.012 829.227 81.012C841.767 81.012 846.915 90.252 847.311 97.776ZM888.184 135V91.572C890.956 86.952 898.744 82.992 904.684 82.992C906.4 82.992 907.72 83.124 908.908 83.388V69.66C900.724 69.66 893.068 74.412 888.184 80.484V71.244H874.324V135H888.184Z" fill="#BD9B60"/>
</svg>
